<?xml version="1.0" encoding="utf-8"?>
<!-- Generator: Adobe Illustrator 18.1.0, SVG Export Plug-In . SVG Version: 6.00 Build 0)  -->
<svg version="1.1" id="Layer_1" xmlns="http://www.w3.org/2000/svg" xmlns:xlink="http://www.w3.org/1999/xlink" x="0px" y="0px"
	 viewBox="0 0 96 56.3" enable-background="new 0 0 96 56.3" xml:space="preserve">
<g>
	<path fill="#F8C560" d="M47.8,34.5C47.8,34.5,47.8,34.5,47.8,34.5c9.6,0,17.3-7.8,17.2-17.3C65,7.7,57.3,0,47.8,0l0,3.1h0
		C55.6,3.1,62,9.4,62,17.2c0,7.8-6.3,14.2-14.1,14.2l0,0c-7.8,0-14.2-6.3-14.2-14.1c0-7.8,6.3-14.2,14.1-14.2l0,0l0-3.1c0,0,0,0,0,0
		c0,0,0,0,0,0c-9.5,0-17.2,7.8-17.2,17.3C30.6,26.8,38.3,34.5,47.8,34.5z"/>
	<path fill="#F8C560" d="M26.5,29.9V14c1.1-0.4,1.8-1.4,1.8-2.8V3.5c0-0.4-0.3-0.7-0.7-0.7H27c-0.4,0-0.7,0.3-0.7,0.7v6.8
		c0,0.1-0.1,0.2-0.2,0.2h-1.1c-0.1,0-0.2-0.1-0.2-0.2V3.5c0-0.4-0.3-0.7-0.7-0.7h-1.3c-0.4,0-0.7,0.3-0.7,0.7v7.7
		c0,1.1,0.8,2,1.6,2.5v16.1c0,0.8,0.7,1.5,1.5,1.5C25.8,31.4,26.5,30.7,26.5,29.9z"/>
	<path fill="#F8C560" d="M71.6,2.7c-0.2,0-0.4,0.1-0.6,0.2c-1.2,1.1-2.5,5.6-3,9c-0.6,4.4,0.2,6.8,1.4,7.4v10.5
		c0,0.8,0.6,1.5,1.4,1.6c0,0,0.1,0,0.1,0c0,0,0,0,0,0c0.4,0,0.8-0.2,1.1-0.4c0.3-0.3,0.4-0.7,0.4-1.1v-26C72.5,3.1,72,2.7,71.6,2.7z
		"/>
	<path fill="#F8C560" d="M50.5,17.1c0.5,0.3,1.1,0.2,1.4-0.3c0.6-0.9,1.7-1.1,2.6-1c0.7,0.1,1.4,0.4,1.7,1.2c0.1,0.4,0.5,0.7,1,0.7
		c0.1,0,0.2,0,0.3,0c0.5-0.2,0.8-0.7,0.7-1.3c-0.4-1.4-1.7-2.4-3.3-2.6c-1.9-0.3-3.7,0.5-4.6,1.9C49.9,16.2,50.1,16.8,50.5,17.1z"/>
	<path fill="#F8C560" d="M42.9,13.8c-1.9-0.2-3.6,0.5-4.6,1.9c-0.3,0.5-0.2,1.1,0.3,1.4c0.5,0.3,1.1,0.2,1.4-0.3
		c0.6-0.9,1.8-1.1,2.7-1c0.8,0.1,1.6,0.5,1.7,1c0.2,0.4,0.5,0.7,1,0.7c0.1,0,0.2,0,0.4-0.1c0.5-0.2,0.8-0.8,0.6-1.3
		C45.8,14.9,44.5,14,42.9,13.8z"/>
	<path fill="#F8C560" d="M5.3,44.1H0.6c-0.3,0-0.6,0.3-0.6,0.6v11c0,0.3,0.3,0.6,0.6,0.6h4.7c3.5,0,6.3-2.4,6.3-6
		C11.6,46.6,8.8,44.1,5.3,44.1z M5.3,53.6H2.9v-6.7h2.4c1.7,0,3.2,1.3,3.2,3.4C8.6,52.4,7,53.6,5.3,53.6z"/>
	<path fill="#F8C560" d="M18.6,44.1h-1.8c-0.3,0-0.6,0.3-0.6,0.6v11c0,0.3,0.3,0.6,0.6,0.6h1.8c0.3,0,0.6-0.3,0.6-0.6v-11
		C19.1,44.4,18.9,44.1,18.6,44.1z"/>
	<path fill="#F8C560" d="M52.4,44.1h-1.8c-0.3,0-0.6,0.3-0.6,0.6v2.2c0,2.2,0,4.4,0,4.4h0c0,0-4.2-5.2-5.4-6.7
		c-0.2-0.3-0.5-0.4-0.9-0.4h-1.6c-0.3,0-0.6,0.3-0.6,0.6v11c0,0.3,0.3,0.6,0.6,0.6h1.8c0.3,0,0.6-0.3,0.6-0.6v-2.1
		c0-2.7,0-4.5,0-4.5h0c0,0,4.1,5.2,5.4,6.8c0.2,0.3,0.6,0.4,0.9,0.4h1.6c0.3,0,0.6-0.3,0.6-0.6v-11C53,44.4,52.7,44.1,52.4,44.1z"/>
	<path fill="#F8C560" d="M35.5,44.1h-1.8c-0.3,0-0.6,0.3-0.6,0.6v2.2c0,2.2,0,4.4,0,4.4h0c0,0-4.2-5.2-5.4-6.7
		c-0.2-0.3-0.5-0.4-0.9-0.4h-1.6c-0.3,0-0.6,0.3-0.6,0.6v11c0,0.3,0.3,0.6,0.6,0.6H27c0.3,0,0.6-0.3,0.6-0.6v-2.1c0-2.7,0-4.5,0-4.5
		h0c0,0,4.1,5.2,5.4,6.8c0.2,0.3,0.6,0.4,0.9,0.4h1.6c0.3,0,0.6-0.3,0.6-0.6v-11C36.1,44.4,35.8,44.1,35.5,44.1z"/>
	<path fill="#F8C560" d="M65.9,51.8c1.4-0.7,2.2-1.9,2.2-3.5c0-2.5-1.8-4.2-4.9-4.2h-4.4c-0.3,0-0.6,0.3-0.6,0.6v11
		c0,0.3,0.3,0.6,0.6,0.6h1.8c0.3,0,0.6-0.3,0.6-0.6v-3.4h2l2.1,3.7c0.1,0.2,0.3,0.3,0.5,0.3h1.9c0.5,0,0.7-0.5,0.5-0.9L65.9,51.8z
		 M63.6,49.7h-2.5v-2.9h2.5c1,0,1.5,0.8,1.5,1.4C65.1,49,64.7,49.7,63.6,49.7z"/>
	<path fill="#F8C560" d="M80.8,44.1h-1.8c-0.3,0-0.6,0.3-0.6,0.6v11c0,0.3,0.3,0.6,0.6,0.6h1.8c0.3,0,0.6-0.3,0.6-0.6v-11
		C81.4,44.4,81.1,44.1,80.8,44.1z"/>
	<path fill="#F8C560" d="M95.4,44.1h-9.1c-0.3,0-0.6,0.3-0.6,0.6v1.6c0,0.3,0.3,0.6,0.6,0.6h3.1v8.8c0,0.3,0.3,0.6,0.6,0.6h1.8
		c0.3,0,0.6-0.3,0.6-0.6v-8.8h3.1c0.3,0,0.6-0.3,0.6-0.6v-1.6C96,44.4,95.7,44.1,95.4,44.1z"/>
</g>
</svg>
